<svg version="1.2" xmlns="http://www.w3.org/2000/svg" viewBox="0 0 800 800" width="500" height="500">
	<title>AdobeStock_482071415-ai</title>
	<style>
		.s0 {
			fill: #014366
		}

		.s1 {
			fill: #014266
		}
	</style>
	<g id="_Artboards_">
	</g>
	<g id="Layer 1">
		<g id="&lt;Group&gt;">
		</g>
		<g id="&lt;Group&gt;">
		</g>
		<g id="NewGroupe0 00000163788572730818934490000010311050031297652649 ">
			<g id="NewGroup1-0">
				<g id="&lt;Group&gt;">
					<path id="&lt;Compound Path&gt;" fill-rule="evenodd" class="s0"
						d="m200 570.7v-320c0-3.4 2.7-6.1 6.1-6.1h45.3v-37.4c0-9.9 8.1-18 18-18h22c9.9 0 18 8.1 18 18v37.4h185.9v-37.4c0-9.9 8-18 18-18h22c9.9 0 18 8.1 18 18v37.4h40.6c3.4 0 6.1 2.7 6.1 6.1v320c0 3.4-2.7 6.1-6.1 6.1h-387.8c-3.4 0-6.1-2.7-6.1-6.1zm63.6-296.2c0 3.2 2.6 5.8 5.8 5.8h22c3.2 0 5.8-2.6 5.8-5.8v-67.3c0-3.2-2.6-5.8-5.8-5.8h-22c-3.2 0-5.8 2.6-5.8 5.8zm243.9 0c0 3.2 2.6 5.7 5.8 5.7h22c3.2 0 5.8-2.5 5.8-5.7v-67.4c0-3.2-2.6-5.8-5.8-5.8h-22c-3.2 0-5.8 2.6-5.8 5.8zm80.3 290.1v-245.8h-375.6v245.8zm-375.6-307.8v49.8h375.6v-49.8h-34.5v17.7c0 9.9-8.1 18-18 18h-22c-9.9 0-18-8.1-18-18v-17.7h-185.9v17.7c0 9.9-8.1 18-18 18h-22c-9.9 0-18-8.1-18-18v-17.7z" />
					<path id="&lt;Compound Path&gt;" fill-rule="evenodd" class="s0"
						d="m498.1 402.6c0.7 2.2 0.1 4.7-1.6 6.3l-42.6 41.6 10 58.7c0.4 2.3-0.5 4.6-2.4 6-1.1 0.8-2.3 1.2-3.6 1.2-1 0-1.9-0.3-2.8-0.7l-52.8-27.8-52.7 27.8c-2.1 1-4.6 0.9-6.4-0.5-1.9-1.4-2.9-3.7-2.5-6l10.1-58.7-42.7-41.6c-1.6-1.6-2.2-4.1-1.5-6.3 0.7-2.2 2.6-3.8 4.9-4.1l59-8.6 26.4-53.4c1-2.1 3.1-3.4 5.4-3.4 2.4 0 4.5 1.3 5.5 3.4l26.4 53.4 59 8.6c2.3 0.3 4.2 1.9 4.9 4.1zm-18.9 6.2l-49.9-7.3c-2-0.3-3.8-1.5-4.6-3.3l-22.4-45.2-22.3 45.2c-0.9 1.8-2.6 3-4.6 3.3l-49.9 7.3 36.1 35.2c1.5 1.4 2.1 3.4 1.8 5.4l-8.5 49.7 44.6-23.5c1.8-0.9 3.9-0.9 5.7 0l44.6 23.5-8.5-49.7c-0.4-2 0.3-4 1.7-5.4z" />
				</g>
			</g>
		</g>
		<g id="&lt;Group&gt;">
		</g>
		<g id="&lt;Group&gt;">
		</g>
		<g id="&lt;Group&gt;">
		</g>
		<g id="&lt;Group&gt;">
		</g>
		<g id="&lt;Group&gt;">
		</g>
		<g id="&lt;Group&gt;">
		</g>
		<g id="&lt;Group&gt;">
		</g>
		<g id="&lt;Group&gt;">
		</g>
		<g id="&lt;Group&gt;">
		</g>
		<g id="&lt;Group&gt;">
		</g>
		<g id="&lt;Group&gt;">
		</g>
		<g id="&lt;Group&gt;">
		</g>
		<g id="&lt;Group&gt;">
		</g>
		<g id="&lt;Group&gt;">
		</g>
		<g id="&lt;Group&gt;">
		</g>
		<path id="TASK MANAGEMENT SYSTEM " class="s1" aria-label="TASK MANAGEMENT SYSTEM "
			d="m98 657.2h-30.2v7.6h1.5c0.2-5.6 3.3-5.9 7.5-5.9 3.4 0 3.9 0.3 3.9 1.3v21.4c0 3.4-0.7 4.7-5.2 4.9v1.5h15.1v-1.5c-4.5-0.2-5.2-1.5-5.2-4.9v-21.4c0-1 0.6-1.3 4.6-1.3 4.6 0 6.4 1.3 6.8 5.9h1.6zm19.4 24c0.7 1.8 0.9 2.5 0.9 3.6 0 1.2-0.9 1.7-3.7 1.7v1.5h13v-1.5c-2.8 0-3.6-0.7-6.1-6.7l-9.1-22.6h-1.7l-10.4 26.1c-0.9 2.3-1.9 2.9-4.3 3.2v1.5h9.7v-1.5c-2.2 0-3.1-0.5-3.1-1.9 0-1.1 0.6-3.3 2.4-7.7h10.7zm-6.8-18.1l4.4 11.8h-9.1zm19.5 24.5h0.9l1.1-2c2.5 2 4.8 2.8 7.8 2.8 6.5 0 10.9-3.7 10.9-9.1 0-4.2-2.2-6.4-10.2-9.9-4.5-2.1-6.1-3.6-6.1-6.1 0-2.7 2.1-4.4 5.3-4.4 3.4 0 5.9 2.1 7.2 6.4h1.5l-0.5-7.9h-0.9l-1 1.8c-2.1-1.7-4.1-2.4-6.4-2.4-5.2 0-8.9 3.5-8.9 8.5 0 4.1 2 6.3 8.6 9.2 5.4 2.4 7 4 7 6.7 0 3.1-2.4 5.2-6.4 5.2-4.8 0-8.3-2.9-9-7.8h-1.5zm33.3-10.9l2.7-3.2 7.8 9.6c1 1.1 1.4 1.9 1.4 2.4 0 0.7-0.9 1-2.9 1v1.6h12.2v-1.6c-1.9 0-2.9-0.5-4.2-2l-11.7-14.1 7.5-8.7c2.3-2.6 3.2-3 5.3-3v-1.4h-9.6v1.5c1.5 0 2.3 0.4 2.3 1.1 0 0.4-0.3 0.9-0.8 1.6l-10 12v-9.9c0-4.2 0.7-4.8 3.9-4.8v-1.5h-12.1v1.5c3.1 0 4 0.5 4 4.5v18.7c0 3.7-0.7 4.5-4.4 4.5v1.6h12.9v-1.6c-3.7 0-4.3-0.7-4.3-4.8zm53.1 4.2l-10.1-23.6h-9.6v1.5c3.5 0.2 4 1.3 4 5.8v16.2c0 5-0.6 5.7-4.4 5.8v1.5h11.2v-1.5c-3.8-0.1-4.4-0.8-4.4-6.1v-18.2h0.2l11.5 26.2h0.9l11.6-26.2h0.4v18.5c0 5-0.6 5.7-4.4 5.8v1.5h13v-1.5c-3.8-0.1-4.4-0.8-4.4-6.1v-15.6c0-4.9 0.6-6 4-6.1v-1.5h-9l-10.4 23.6zm43 0.4c0.7 1.8 0.9 2.5 0.9 3.5 0 1.3-0.9 1.7-3.7 1.7v1.6h13v-1.6c-2.8 0-3.6-0.6-6.1-6.6l-9.1-22.6h-1.7l-10.4 26c-0.9 2.3-1.9 3-4.3 3.3v1.5h9.7v-1.5c-2.2 0-3.1-0.5-3.1-2 0-1.1 0.6-3.3 2.4-7.7h10.7zm-6.8-18.1l4.4 11.8h-9.1zm46.7 25.4v-23.9c0-5 0.7-5.7 4.4-5.8v-1.5h-10.7v1.5c3.4 0.1 3.9 0.8 3.9 6v15.8h-0.1l-17.5-23.3h-7.9v1.5c3.4 0.2 4 1.2 4 5.8v16.2c0 5-0.7 5.6-4.4 5.8v1.5h10.7v-1.5c-3.4-0.2-3.9-0.8-3.9-6.1v-17.1h0.1l19 25.1zm26.6-7.3c0.7 1.9 0.9 2.6 0.9 3.6 0 1.2-0.8 1.7-3.7 1.7v1.6h13.1v-1.6c-2.8 0-3.7-0.7-6.1-6.7l-9.1-22.5h-1.7l-10.4 26c-0.9 2.3-1.9 3-4.4 3.3v1.5h9.7v-1.5c-2.2 0-3.1-0.5-3.1-2 0-1.1 0.7-3.3 2.5-7.7h10.7zm-6.9-18.1l4.5 11.8h-9.1zm32.8 25.4c2.9 0 5.4-0.8 7.2-1.8 3.1-1.7 4.1-2 6.2-2v-4.4c0-2.8 0.6-3.6 3.2-3.6v-1.5h-11.3v1.5c2.8 0 4 0.8 4 4 0 2.9-3 5.6-8.2 5.6-6.7 0-10.4-4.8-10.4-13.4 0-8.7 3.8-14 10.3-14 4.3 0 8.6 2.4 8.6 7.6h1.9l0.5-9.2h-1.4l-0.8 2.4c-3.3-2-6-2.8-9.2-2.8-9 0-15.3 6.6-15.3 16.3 0 9.3 5.7 15.3 14.7 15.3zm28.1-28.8c0-0.4 0.3-0.7 0.7-0.7h5.1c5.4 0 7.5 1.1 8.1 5.3h1.4l-0.4-7h-23.1v1.5c3.5 0.1 4 0.8 4 4.5v18.7c0 3.7-0.6 4.4-4.4 4.5v1.6h24.9l0.6-7.9h-1.6c-1 4.7-3 6.1-8.6 6.1-5.1 0-6.7-1-6.7-4.5v-9.1c6 0.1 7.6 1.6 7.6 4.8h1.4v-11h-1.4c0 3.3-1.8 4.6-7.6 4.6zm40.5 21.3l-10.1-23.7h-9.5v1.6c3.4 0.1 4 1.2 4 5.7v16.3c0 4.9-0.7 5.6-4.4 5.7v1.5h11.1v-1.5c-3.7-0.1-4.3-0.7-4.3-6v-18.3h0.1l11.5 26.2h0.9l11.7-26.2h0.4v18.6c0 4.9-0.7 5.6-4.4 5.7v1.5h12.9v-1.5c-3.7-0.1-4.3-0.7-4.3-6v-15.7c0-4.8 0.5-5.9 3.9-6v-1.6h-8.9l-10.4 23.7zm32.1-21.3c0-0.4 0.3-0.6 0.7-0.6h5.1c5.4 0 7.5 1 8.1 5.3h1.4l-0.4-7.1h-23.1v1.6c3.5 0.1 4 0.8 4 4.5v18.7c0 3.7-0.6 4.4-4.4 4.5v1.5h24.9l0.6-7.8h-1.6c-1 4.7-3 6.1-8.6 6.1-5.1 0-6.7-1.1-6.7-4.5v-9.1c6 0.1 7.6 1.5 7.6 4.7h1.4v-10.9h-1.4c0 3.3-1.8 4.6-7.6 4.6zm48.8 28.8v-23.9c0-5 0.7-5.6 4.4-5.8v-1.5h-10.7v1.5c3.4 0.2 3.9 0.8 3.9 6.1v15.7h-0.1l-17.5-23.3h-7.9v1.5c3.4 0.2 4 1.3 4 5.8v16.2c0 5-0.7 5.7-4.4 5.8v1.5h10.7v-1.5c-3.4-0.1-3.9-0.8-3.9-6v-17.1h0.1l19 25zm37-31.2h-30.2v7.7h1.5c0.1-5.7 3.2-6 7.4-6 3.4 0 3.9 0.4 3.9 1.3v21.4c0 3.4-0.7 4.7-5.2 4.9v1.5h15.1v-1.5c-4.5-0.2-5.1-1.5-5.1-4.9v-21.4c0-0.9 0.5-1.3 4.5-1.3 4.6 0 6.5 1.3 6.8 6h1.7zm14.3 30.3h0.9l1.1-1.9c2.5 2 4.8 2.8 7.8 2.8 6.4 0 10.9-3.8 10.9-9.1 0-4.2-2.3-6.4-10.2-10-4.5-2-6.1-3.5-6.1-6.1 0-2.6 2.1-4.4 5.3-4.4 3.4 0 5.9 2.1 7.2 6.5h1.5l-0.5-8h-0.9l-1 1.8c-2.1-1.6-4.1-2.3-6.4-2.3-5.2 0-9 3.5-9 8.4 0 4.2 2.1 6.4 8.7 9.3 5.4 2.3 7 3.9 7 6.6 0 3.2-2.5 5.2-6.4 5.2-4.8 0-8.3-2.9-9.1-7.7h-1.4zm35.2-11.8v4.9c0 4.9-0.6 5.8-4.4 5.8v1.5h12.9v-1.5c-3.8 0-4.3-0.9-4.3-6.1v-4.7l6.1-10.4c3.3-5.5 4.3-6.6 6.6-6.6v-1.5h-9.2v1.5c1.9 0 2.6 0.4 2.6 1.4 0 1-0.7 2.5-2.3 5.4l-4.6 7.6h-0.1l-6.2-10.6c-0.7-1.1-0.9-1.9-0.9-2.4 0-1 1-1.4 3.6-1.4v-1.5h-12.6v1.5c2.2 0 3.1 0.7 4.8 3.5zm19.2 11.7h1l1.1-2c2.5 2 4.7 2.8 7.8 2.8 6.4 0 10.9-3.7 10.9-9.1 0-4.2-2.3-6.4-10.2-9.9-4.6-2.1-6.1-3.6-6.1-6.1 0-2.7 2.1-4.4 5.3-4.4 3.4 0 5.9 2.1 7.2 6.4h1.4l-0.4-7.9h-0.9l-1.1 1.8c-2-1.7-4-2.4-6.3-2.4-5.3 0-9 3.5-9 8.5 0 4.1 2.1 6.3 8.7 9.2 5.4 2.4 7 4 7 6.7 0 3.1-2.5 5.2-6.4 5.2-4.8 0-8.3-2.9-9.1-7.8h-1.5zm53.7-30.3h-30.2v7.6h1.5c0.1-5.7 3.2-5.9 7.4-5.9 3.4 0 3.9 0.3 3.9 1.2v21.4c0 3.5-0.7 4.8-5.2 4.9v1.6h15.1v-1.6c-4.5-0.1-5.1-1.4-5.1-4.9v-21.4c0-0.9 0.5-1.2 4.5-1.2 4.6 0 6.5 1.3 6.8 5.9h1.7zm11.5 2.4c0-0.4 0.2-0.7 0.6-0.7h5.1c5.5 0 7.5 1.1 8.1 5.3h1.4l-0.3-7h-23.1v1.5c3.4 0.2 4 0.9 4 4.6v18.6c0 3.8-0.7 4.5-4.4 4.6v1.5h24.8l0.6-7.9h-1.5c-1.1 4.7-3.1 6.2-8.7 6.2-5 0-6.6-1.1-6.6-4.6v-9c6 0 7.5 1.5 7.5 4.7h1.4v-10.9h-1.4c0 3.2-1.8 4.6-7.5 4.6zm40.4 21.2l-10-23.6h-9.6v1.5c3.4 0.2 4 1.2 4 5.8v16.2c0 5-0.6 5.6-4.4 5.8v1.5h11.2v-1.5c-3.8-0.2-4.4-0.8-4.4-6.1v-18.3h0.2l11.4 26.3h0.9l11.7-26.3h0.4v18.6c0 5-0.6 5.6-4.4 5.8v1.5h13v-1.5c-3.8-0.2-4.4-0.8-4.4-6.1v-15.7c0-4.8 0.5-5.9 4-6v-1.5h-9l-10.4 23.6z" />
	</g>
</svg>